<svg xmlns="http://www.w3.org/2000/svg" viewBox="0 0 40 40"><rect width="40" height="40" rx="8" fill="#13233f"/><circle cx="11.44" cy="21.22" r="1.6" fill="#d4b35f"/><circle cx="14.71" cy="16.72" r="1.6" fill="#d4b35f"/><circle cx="20.00" cy="15.00" r="1.6" fill="#d4b35f"/><circle cx="25.29" cy="16.72" r="1.6" fill="#d4b35f"/><circle cx="28.56" cy="21.22" r="1.6" fill="#d4b35f"/><circle cx="7.33" cy="21.11" r="1.6" fill="#d4b35f"/><circle cx="9.84" cy="15.89" r="1.6" fill="#d4b35f"/><circle cx="14.36" cy="12.29" r="1.6" fill="#d4b35f"/><circle cx="20.00" cy="11.00" r="1.6" fill="#d4b35f"/><circle cx="25.64" cy="12.29" r="1.6" fill="#d4b35f"/><circle cx="30.16" cy="15.89" r="1.6" fill="#d4b35f"/><circle cx="32.67" cy="21.11" r="1.6" fill="#d4b35f"/><circle cx="3.26" cy="21.05" r="1.6" fill="#d4b35f"/><circle cx="5.28" cy="15.50" r="1.6" fill="#d4b35f"/><circle cx="9.07" cy="10.98" r="1.6" fill="#d4b35f"/><circle cx="14.19" cy="8.03" r="1.6" fill="#d4b35f"/><circle cx="20.00" cy="7.00" r="1.6" fill="#d4b35f"/><circle cx="25.81" cy="8.03" r="1.6" fill="#d4b35f"/><circle cx="30.93" cy="10.98" r="1.6" fill="#d4b35f"/><circle cx="34.72" cy="15.50" r="1.6" fill="#d4b35f"/><circle cx="36.74" cy="21.05" r="1.6" fill="#d4b35f"/><rect x="15" y="25" width="10" height="4" rx="1" fill="#d4b35f"/></svg>
